<svg width="40" height="40" viewBox="0 0 40 40" fill="none" xmlns="http://www.w3.org/2000/svg">
<g clip-path="url(#clip0_11_239)">
<path d="M37.3179 10.4502C35.5294 7.38594 33.1035 4.95994 30.0395 3.17168C26.975 1.38333 23.6295 0.48938 20.0007 0.48938C16.3722 0.48938 13.0257 1.3836 9.96182 3.17168C6.89754 4.95985 4.47172 7.38594 2.68328 10.4502C0.895107 13.5144 0.000976562 16.8605 0.000976562 20.4885C0.000976562 24.8465 1.27244 28.7654 3.81601 32.246C6.35931 35.7269 9.64487 38.1356 13.6724 39.4723C14.1412 39.5593 14.4883 39.4981 14.714 39.2902C14.9397 39.0821 15.0524 38.8214 15.0524 38.5093C15.0524 38.4572 15.048 37.9887 15.0393 37.1031C15.0304 36.2176 15.0262 35.445 15.0262 34.7858L14.4272 34.8895C14.0453 34.9594 13.5635 34.9891 12.9819 34.9807C12.4005 34.9725 11.797 34.9116 11.1721 34.7983C10.5469 34.6861 9.96547 34.4257 9.42724 34.0177C8.88929 33.6097 8.50739 33.0757 8.28165 32.4164L8.02124 31.8171C7.84767 31.4182 7.57441 30.975 7.20108 30.4892C6.82776 30.003 6.45024 29.6733 6.06835 29.4998L5.88602 29.3693C5.76453 29.2825 5.65179 29.1779 5.54754 29.0565C5.44338 28.9351 5.36539 28.8136 5.31331 28.6919C5.26114 28.5702 5.30437 28.4703 5.44347 28.3919C5.58256 28.3136 5.83394 28.2756 6.19869 28.2756L6.71931 28.3534C7.06655 28.423 7.49606 28.6308 8.00838 28.9782C8.52043 29.3254 8.94137 29.7767 9.27127 30.332C9.67077 31.044 10.1521 31.5865 10.7166 31.9598C11.2806 32.3331 11.8493 32.5195 12.4221 32.5195C12.9949 32.5195 13.4896 32.476 13.9065 32.3897C14.3228 32.3028 14.7135 32.1723 15.0782 31.9988C15.2345 30.8352 15.6599 29.9412 16.3541 29.3164C15.3646 29.2124 14.4751 29.0558 13.6849 28.8475C12.8952 28.639 12.0792 28.3006 11.2373 27.8315C10.395 27.3629 9.69622 26.7811 9.14084 26.087C8.58538 25.3925 8.12951 24.4808 7.77388 23.3526C7.41807 22.224 7.24012 20.922 7.24012 19.4464C7.24012 17.3454 7.92602 15.5575 9.29754 14.0817C8.65506 12.5022 8.71571 10.7314 9.47969 8.76969C9.98317 8.61326 10.7298 8.73065 11.7193 9.12112C12.7089 9.51177 13.4335 9.84642 13.8937 10.1239C14.3539 10.4012 14.7227 10.6363 15.0005 10.8269C16.6154 10.3757 18.2819 10.1501 20.0005 10.1501C21.7191 10.1501 23.3859 10.3757 25.0009 10.8269L25.9904 10.2022C26.6671 9.7854 27.4662 9.40341 28.3858 9.05618C29.3059 8.70912 30.0095 8.61353 30.4958 8.76996C31.2768 10.7318 31.3463 12.5024 30.7037 14.082C32.0751 15.5578 32.7613 17.3461 32.7613 19.4467C32.7613 20.9223 32.5827 22.2283 32.2274 23.3656C31.8717 24.5031 31.4119 25.4139 30.8479 26.1C30.2832 26.786 29.58 27.3633 28.7381 27.8317C27.8961 28.3005 27.0797 28.6389 26.29 28.8474C25.5 29.0559 24.6104 29.2126 23.621 29.3168C24.5234 30.0977 24.9747 31.3304 24.9747 33.0144V38.5086C24.9747 38.8207 25.0832 39.0813 25.3005 39.2895C25.5175 39.4974 25.8602 39.5586 26.329 39.4715C30.3571 38.135 33.6426 35.7262 36.1858 32.2453C38.7288 28.7646 40.0007 24.8458 40.0007 20.4878C39.9998 16.8603 39.1052 13.5144 37.3179 10.4502Z" fill="black"/>
</g>
<defs>
<clipPath id="clip0_11_239">
<rect width="40" height="40" fill="white" transform="translate(0.000976562)"/>
</clipPath>
</defs>
</svg>
