<svg width="40" height="40" viewBox="0 0 40 40" fill="none" xmlns="http://www.w3.org/2000/svg">
<path d="M33.8027 33.8024H27.9245V24.5969C27.9245 22.4017 27.8854 19.5759 24.8673 19.5759C21.8057 19.5759 21.3373 21.9676 21.3373 24.4371V33.8018H15.459V14.8715H21.1021V17.4585H21.1811C21.7459 16.4929 22.5619 15.6986 23.5424 15.1601C24.5229 14.6216 25.6311 14.3592 26.7489 14.4006C32.7067 14.4006 33.8052 18.3195 33.8052 23.4176L33.8027 33.8024ZM8.82649 12.2839C8.15182 12.284 7.49224 12.0841 6.93121 11.7093C6.37017 11.3346 5.93289 10.8019 5.67459 10.1787C5.41629 9.55538 5.3486 8.86952 5.4801 8.20779C5.6116 7.54605 5.93639 6.93818 6.41337 6.46103C6.89035 5.98388 7.49811 5.65888 8.1598 5.52714C8.82148 5.3954 9.50736 5.46283 10.1307 5.72091C10.7541 5.97898 11.2869 6.4161 11.6618 6.97701C12.0368 7.53791 12.237 8.1974 12.2371 8.87207C12.2372 9.32003 12.149 9.76362 11.9776 10.1775C11.8063 10.5914 11.5551 10.9675 11.2384 11.2843C10.9217 11.6011 10.5457 11.8525 10.1318 12.024C9.718 12.1955 9.27445 12.2838 8.82649 12.2839ZM11.7656 33.8024H5.88126V14.8715H11.7656V33.8024ZM36.7333 0.00270285H2.92747C2.16018 -0.00595609 1.4208 0.290365 0.871867 0.82655C0.322937 1.36274 0.00936443 2.09492 0 2.86221V36.8083C0.00904393 37.5759 0.322432 38.3086 0.871343 38.8454C1.42025 39.3821 2.1598 39.679 2.92747 39.6708H36.7333C37.5025 39.6805 38.2441 39.3844 38.7952 38.8477C39.3462 38.311 39.6617 37.5775 39.6724 36.8083V2.85976C39.6614 2.09095 39.3457 1.35793 38.7946 0.82176C38.2435 0.285587 37.5021 -0.00988707 36.7333 0.000252608" fill="#0A66C2"/>
</svg>
