<svg width="109" height="97" viewBox="0 0 109 97" fill="none" xmlns="http://www.w3.org/2000/svg">
<rect y="48.6006" width="67.5942" height="67.5942" rx="11" transform="rotate(-45 0 48.6006)" fill="#401EC7"/>
<rect x="13.1597" y="47.7963" width="67.5942" height="67.5942" rx="11" transform="rotate(-45 13.1597 47.7963)" fill="#4E25F0"/>
<path d="M67.7685 46.7315H71.8005V58.1975C70.3445 59.4015 68.6505 60.3255 66.7185 60.9695C64.7865 61.6135 62.7705 61.9355 60.6705 61.9355C57.7025 61.9355 55.0285 61.2915 52.6485 60.0035C50.2685 58.6875 48.3925 56.8955 47.0205 54.6275C45.6765 52.3315 45.0045 49.7555 45.0045 46.8995C45.0045 44.0435 45.6765 41.4675 47.0205 39.1715C48.3925 36.8755 50.2685 35.0835 52.6485 33.7955C55.0565 32.5075 57.7585 31.8635 60.7545 31.8635C63.1065 31.8635 65.2345 32.2555 67.1385 33.0395C69.0705 33.7955 70.7085 34.9155 72.0525 36.3995L69.4485 39.0035C67.0965 36.7355 64.2545 35.6015 60.9225 35.6015C58.6825 35.6015 56.6665 36.0915 54.8745 37.0715C53.1105 38.0235 51.7245 39.3675 50.7165 41.1035C49.7085 42.8115 49.2045 44.7435 49.2045 46.8995C49.2045 49.0275 49.7085 50.9595 50.7165 52.6955C51.7245 54.4035 53.1105 55.7475 54.8745 56.7275C56.6665 57.7075 58.6685 58.1975 60.8805 58.1975C63.5125 58.1975 65.8085 57.5675 67.7685 56.3075V46.7315Z" fill="white"/>
</svg>
