<svg width="40" height="40" viewBox="0 0 40 40" fill="none" xmlns="http://www.w3.org/2000/svg">
<g clip-path="url(#clip0_11_234)">
<path fill-rule="evenodd" clip-rule="evenodd" d="M31.3881 25.177H34.9365V39.0244H3.00098V25.177H6.54936V35.5625H31.3881V25.177Z" fill="#BBBBBB"/>
<path d="M10.4164 24.148L27.8438 27.7216L28.5764 24.3227L11.149 20.7476L10.4164 24.148ZM12.7226 16.0067L28.8664 23.3421L30.3703 20.1921L14.2261 12.8568L12.7226 16.0067ZM17.1896 8.27959L30.8761 19.3987L33.1555 16.7284L19.469 5.60956L17.1896 8.27959ZM26.0242 0.0605469L23.1661 2.1345L33.7945 16.0763L36.6525 14.0026L26.0242 0.0605469ZM10.0977 32.1008H27.8397V28.639H10.0977V32.1008Z" fill="#F58025"/>
</g>
<defs>
<clipPath id="clip0_11_234">
<rect width="40" height="40" fill="white" transform="translate(0.000976562)"/>
</clipPath>
</defs>
</svg>
