<svg version="1.2" baseProfile="tiny-ps" xmlns="http://www.w3.org/2000/svg" viewBox="0 0 256 82" width="256" height="82">
	<title>justvalidate-svg</title>
	<style>
		tspan { white-space:pre }
		.s0 { fill: #000000 } 
		.s1 { fill: #a239ea } 
		.s2 { fill: #5c33f6 } 
		.s3 { fill: #ffffff } 
	</style>
	<path id="Layer" fill-rule="evenodd" class="s0" d="m86.91 51.16c-1.04 0-2-0.23-2.89-0.68c-0.88-0.45-1.6-1.09-2.16-1.92l1.14-1.3c1.01 1.49 2.31 2.24 3.93 2.24c2.25 0 3.38-1.33 3.38-4v-11.02h-6.66v-1.66h8.55v12.61c0 1.91-0.45 3.35-1.35 4.32c-0.88 0.95-2.2 1.43-3.95 1.43zm23.01-13.83v13.68h-1.77v-2.5c-0.48 0.83-1.15 1.48-2 1.95c-0.85 0.45-1.82 0.68-2.91 0.68c-1.79 0-3.2-0.49-4.24-1.48c-1.02-1.01-1.53-2.47-1.53-4.39v-7.93h1.85v7.75c0 1.44 0.36 2.53 1.07 3.28c0.71 0.75 1.72 1.12 3.04 1.12c1.44 0 2.57-0.43 3.41-1.3c0.83-0.88 1.25-2.11 1.25-3.67v-7.18h1.85zm8.84 13.81c-1.11 0-2.18-0.16-3.2-0.47c-1.01-0.33-1.79-0.74-2.37-1.22l0.83-1.46c0.57 0.45 1.29 0.82 2.16 1.12c0.87 0.28 1.77 0.42 2.7 0.42c1.25 0 2.17-0.19 2.76-0.57c0.61-0.4 0.91-0.95 0.91-1.66c0-0.5-0.16-0.89-0.49-1.17c-0.33-0.29-0.75-0.51-1.25-0.65c-0.5-0.16-1.17-0.3-2-0.44c-1.11-0.21-2-0.42-2.68-0.62c-0.68-0.23-1.26-0.6-1.74-1.12c-0.47-0.52-0.7-1.24-0.7-2.16c0-1.14 0.48-2.08 1.43-2.81c0.95-0.73 2.28-1.09 3.98-1.09c0.88 0 1.77 0.12 2.65 0.36c0.88 0.23 1.61 0.53 2.18 0.91l-0.81 1.48c-1.13-0.78-2.47-1.17-4.03-1.17c-1.18 0-2.07 0.21-2.68 0.62c-0.59 0.42-0.88 0.96-0.88 1.64c0 0.52 0.16 0.94 0.49 1.25c0.35 0.31 0.77 0.55 1.27 0.7c0.5 0.14 1.2 0.29 2.08 0.44c1.09 0.21 1.97 0.42 2.63 0.62c0.66 0.21 1.22 0.56 1.69 1.07c0.47 0.5 0.7 1.2 0.7 2.08c0 1.2-0.5 2.15-1.51 2.86c-0.99 0.69-2.37 1.04-4.13 1.04zm16.26-0.96c-0.35 0.31-0.78 0.55-1.3 0.73c-0.5 0.16-1.03 0.23-1.59 0.23c-1.28 0-2.27-0.35-2.96-1.04c-0.69-0.69-1.04-1.67-1.04-2.94v-8.27h-2.44v-1.56h2.44v-2.99h1.85v2.99h4.16v1.56h-4.16v8.16c0 0.81 0.2 1.44 0.6 1.87c0.42 0.42 1.01 0.62 1.77 0.62c0.38 0 0.75-0.06 1.09-0.18c0.36-0.12 0.68-0.29 0.94-0.52l0.65 1.33zm18.88-17.37l-8.06 18.2h-1.9l-8.06-18.2h2.08l6.97 15.81l7.02-15.81h1.95zm5.99 4.42c1.78 0 3.16 0.45 4.11 1.35c0.95 0.88 1.43 2.2 1.43 3.95v8.48h-1.77v-2.13c-0.42 0.71-1.03 1.27-1.85 1.66c-0.8 0.4-1.75 0.6-2.86 0.6c-1.53 0-2.74-0.36-3.64-1.09c-0.9-0.73-1.35-1.69-1.35-2.89c0-1.16 0.42-2.1 1.25-2.81c0.85-0.71 2.19-1.07 4.03-1.07h4.34v-0.83c0-1.18-0.33-2.07-0.99-2.68c-0.66-0.62-1.62-0.94-2.89-0.94c-0.87 0-1.7 0.15-2.5 0.44c-0.8 0.28-1.48 0.67-2.05 1.17l-0.83-1.38c0.69-0.59 1.53-1.04 2.5-1.35c0.97-0.33 1.99-0.49 3.07-0.49zm-0.65 12.45c1.04 0 1.93-0.23 2.68-0.7c0.75-0.49 1.3-1.18 1.66-2.08v-2.24h-4.29c-2.34 0-3.51 0.81-3.51 2.44c0 0.8 0.3 1.43 0.91 1.9c0.61 0.45 1.46 0.68 2.55 0.68zm11.2-17.97h1.85v19.29h-1.85v-19.29zm6.98 5.62h1.85v13.68h-1.85v-13.68zm0.94-2.99c-0.38 0-0.7-0.13-0.96-0.39c-0.26-0.26-0.39-0.57-0.39-0.94c0-0.35 0.13-0.65 0.39-0.91c0.26-0.26 0.58-0.39 0.96-0.39c0.38 0 0.7 0.13 0.96 0.39c0.26 0.24 0.39 0.54 0.39 0.88c0 0.38-0.13 0.7-0.39 0.96c-0.26 0.26-0.58 0.39-0.96 0.39zm18.53-2.63v19.29h-1.77v-2.7c-0.56 0.92-1.29 1.62-2.21 2.11c-0.9 0.49-1.92 0.73-3.07 0.73c-1.28 0-2.44-0.29-3.48-0.88c-1.04-0.59-1.86-1.41-2.44-2.47c-0.59-1.06-0.88-2.26-0.88-3.61c0-1.35 0.29-2.56 0.88-3.61c0.59-1.06 1.4-1.87 2.44-2.44c1.04-0.59 2.2-0.88 3.48-0.88c1.11 0 2.11 0.23 2.99 0.7c0.9 0.45 1.64 1.12 2.21 2v-8.22h1.85zm-6.89 17.78c0.95 0 1.81-0.22 2.57-0.65c0.78-0.45 1.39-1.08 1.82-1.9c0.45-0.81 0.68-1.74 0.68-2.78c0-1.04-0.22-1.97-0.68-2.78c-0.43-0.81-1.04-1.44-1.82-1.87c-0.76-0.45-1.62-0.68-2.57-0.68c-0.97 0-1.85 0.23-2.63 0.68c-0.76 0.43-1.37 1.06-1.82 1.87c-0.43 0.81-0.65 1.74-0.65 2.78c0 1.04 0.22 1.97 0.65 2.78c0.45 0.81 1.06 1.45 1.82 1.9c0.78 0.43 1.66 0.65 2.63 0.65zm16.81-12.27c1.78 0 3.16 0.45 4.11 1.35c0.95 0.88 1.43 2.2 1.43 3.95v8.48h-1.77v-2.13c-0.42 0.71-1.03 1.27-1.85 1.66c-0.8 0.4-1.75 0.6-2.86 0.6c-1.52 0-2.74-0.36-3.64-1.09c-0.9-0.73-1.35-1.69-1.35-2.89c0-1.16 0.42-2.1 1.25-2.81c0.85-0.71 2.19-1.07 4.03-1.07h4.34v-0.83c0-1.18-0.33-2.07-0.99-2.68c-0.66-0.62-1.62-0.94-2.89-0.94c-0.87 0-1.7 0.15-2.5 0.44c-0.8 0.28-1.48 0.67-2.05 1.17l-0.83-1.38c0.69-0.59 1.53-1.04 2.5-1.35c0.97-0.33 1.99-0.49 3.07-0.49zm-0.65 12.45c1.04 0 1.93-0.23 2.68-0.7c0.75-0.49 1.3-1.18 1.66-2.08v-2.24h-4.29c-2.34 0-3.51 0.81-3.51 2.44c0 0.8 0.3 1.43 0.91 1.9c0.61 0.45 1.46 0.68 2.55 0.68zm18.4 0.49c-0.35 0.31-0.78 0.55-1.3 0.73c-0.5 0.16-1.03 0.23-1.59 0.23c-1.28 0-2.27-0.35-2.96-1.04c-0.69-0.69-1.04-1.67-1.04-2.94v-8.27h-2.44v-1.56h2.44v-2.99h1.85v2.99h4.16v1.56h-4.16v8.16c0 0.81 0.2 1.44 0.6 1.87c0.42 0.42 1 0.62 1.77 0.62c0.38 0 0.75-0.06 1.09-0.18c0.36-0.12 0.68-0.29 0.94-0.52l0.65 1.33zm14.79-5.43h-11.44c0.1 1.42 0.65 2.57 1.64 3.46c0.99 0.87 2.24 1.3 3.74 1.3c0.85 0 1.63-0.15 2.34-0.44c0.71-0.31 1.33-0.76 1.85-1.35l1.04 1.2c-0.61 0.73-1.37 1.28-2.29 1.66c-0.9 0.38-1.9 0.57-2.99 0.57c-1.4 0-2.65-0.29-3.74-0.88c-1.08-0.61-1.91-1.44-2.52-2.5c-0.61-1.06-0.91-2.25-0.91-3.59c0-1.33 0.29-2.53 0.86-3.59c0.59-1.06 1.39-1.88 2.39-2.47c1.02-0.59 2.17-0.88 3.43-0.88c1.26 0 2.4 0.29 3.41 0.88c1 0.59 1.79 1.41 2.37 2.47c0.57 1.04 0.86 2.24 0.86 3.59l-0.03 0.57zm-6.6-5.93c-1.32 0-2.43 0.42-3.33 1.27c-0.88 0.83-1.39 1.92-1.51 3.28h9.7c-0.12-1.35-0.63-2.44-1.53-3.28c-0.88-0.85-1.99-1.27-3.33-1.27z" />
	<path id="Layer" class="s1" d="m64.53 19.68l-8.56 49.5l-38.59-32.16l47.14-17.34z" />
	<path id="Layer" class="s2" d="m65.43 63.46l-47.81-15.39l37.23-33.71l10.58 49.1z" />
	<path id="Layer" class="s3" d="m39.18 41.57c-0.31-0.46-0.2-1.08 0.26-1.39c0.46-0.31 1.08-0.2 1.39 0.26l-1.65 1.13zm6.51 6.89l-0.77 1.49l-0.95-1.38l0.82-0.57l0.89 0.46zm5.42-14.91c0.25-0.49 0.86-0.68 1.35-0.43c0.49 0.25 0.68 0.86 0.43 1.35l-1.78-0.91zm-10.29 6.89l4.8 7l-1.65 1.13l-4.8-7l1.65-1.13zm3.09 7.11l7.2-14l1.78 0.91l-7.2 14l-1.78-0.91z" />
</svg>