<?xml version="1.0" standalone="no"?>
<!DOCTYPE svg PUBLIC "-//W3C//DTD SVG 20010904//EN"
 "http://www.w3.org/TR/2001/REC-SVG-20010904/DTD/svg10.dtd">
<svg version="1.0" xmlns="http://www.w3.org/2000/svg"
 width="872.000000pt" height="872.000000pt" viewBox="0 0 872.000000 872.000000"
 preserveAspectRatio="xMidYMid meet">
<metadata>
Created by potrace 1.14, written by Peter Selinger 2001-2017
</metadata>
<g transform="translate(0.000000,872.000000) scale(0.100000,-0.100000)"
fill="#000000" stroke="none">
<path d="M4780 7870 c-147 -18 -319 -85 -422 -164 l-48 -37 -104 51 c-143 70
-258 94 -421 87 -191 -8 -342 -62 -492 -177 -113 -85 -2718 -2697 -2773 -2779
-200 -299 -206 -681 -15 -977 26 -40 483 -504 1419 -1439 1286 -1286 1386
-1384 1459 -1424 168 -94 363 -134 539 -112 158 20 310 80 424 167 l44 34 85
-44 c143 -74 222 -91 410 -90 147 0 167 3 245 28 99 33 161 63 245 119 70 46
2672 2638 2766 2755 253 314 257 767 9 1087 -22 28 -643 654 -1382 1392 -1432
1430 -1397 1397 -1561 1463 -132 53 -299 76 -427 60z m375 -2208 c223 -49 408
-141 552 -277 l58 -54 -104 -104 -104 -105 -61 50 c-133 108 -279 175 -449
204 -108 19 -314 14 -415 -11 -313 -76 -548 -284 -646 -573 -37 -109 -49 -206
-43 -349 6 -147 24 -224 78 -341 121 -261 347 -435 643 -497 99 -20 314 -21
416 -1 99 19 190 50 273 93 l67 35 0 384 0 384 160 0 160 0 0 -460 0 -460 -59
-44 c-69 -50 -229 -134 -316 -164 -168 -58 -321 -84 -510 -84 -363 0 -658 112
-897 340 -223 213 -338 471 -354 792 -31 617 350 1114 951 1239 139 29 149 30
340 26 121 -3 196 -9 260 -23z"/>
</g>
</svg>
